<svg xmlns="http://www.w3.org/2000/svg" width="115" height="76"><g data-name="Vector Smart Object copy 5" opacity=".902"><g data-name="Vector Smart Object copy 5"><g data-name="Сгруппировать 1" fill="#77aabe"><path data-name="Контур 1" d="M76.876 33.688a1.569 1.569 0 11-.009 3.138 1.57 1.57 0 110-3.138zm-.019.316a1.25 1.25 0 00.019 2.5 1.2 1.2 0 001.188-1.24 1.214 1.214 0 00-1.2-1.258zm-.237 2.06h-.361V34.5a4.155 4.155 0 01.6-.048.831.831 0 01.532.124.4.4 0 01.161.334.4.4 0 01-.323.372v.019c.152.048.228.172.276.382a1.369 1.369 0 00.114.382h-.38a1.243 1.243 0 01-.123-.382c-.028-.163-.124-.238-.323-.238h-.171zm.009-.877h.171c.2 0 .361-.067.361-.23 0-.142-.1-.238-.332-.238a.891.891 0 00-.2.019z"/><path data-name="Контур 2" d="M54.344.001h-.6l-9.9 19.394-16.63-10.287-.988-.033 8.484 26.514 5.745-.786-4.98-14.77 11.1 6.5 2.027-4.2 5.383-10.8 4.545 9.533 4.852-2.853z"/><path data-name="Контур 3" d="M80.64 9.108L53.927 25.479l-3.995-2.354-1.976 4.222 5.632 3.3h.677l18.114-10.614L67.4 34.805l5.745.786 8.487-26.516z"/></g><g data-name="Сгруппировать 2" fill="#1a1818"><path data-name="Контур 4" d="M14.103 53.417L.96 41.286H0v21.1h4.215V49.651l9.548 8.8h.636l9.069-8.764v12.7h4.215v-21.1h-.966z"/><path data-name="Прямоугольник 1" d="M32.875 41.603h4.216v20.785h-4.216z"/><path data-name="Контур 5" d="M53.394 41L39.149 62.388h4.509l2.548-3.84H61.42l2.61 3.84h4.675L54.162 41zm5.531 13.9h-10.3l5.1-7.646z"/><path data-name="Контур 6" d="M84.541 53.417L71.398 41.286h-.96v21.1h4.215V49.651l9.547 8.8h.637l9.069-8.764v12.7h4.216v-21.1h-.966z"/><path data-name="Прямоугольник 2" d="M103.313 41.603h4.216v20.785h-4.216z"/></g><path data-name="Контур 7" d="M5.964 76C2.595 76 .205 74.575.205 72.051S2.757 67.99 5.89 67.99a10.36 10.36 0 014 .625v.924l-.049.038a6.389 6.389 0 00-3.914-1c-2.663 0-4.546 1.149-4.546 3.473 0 2.236 1.623 3.361 4.583 3.361a5.824 5.824 0 004.1-1.349l.062.025v.987A8.447 8.447 0 015.964 76z" fill="#1a1818"/><path data-name="Контур 8" d="M16.654 76c-2.9 0-5.549-1.312-5.549-3.974 0-2.773 2.786-4.035 5.549-4.035s5.549 1.237 5.549 4.011c0 2.661-2.651 3.998-5.549 3.998zm-.025-.588c2.787 0 4.4-1.237 4.4-3.386s-1.7-3.448-4.4-3.448-4.348 1.262-4.348 3.424 1.574 3.41 4.351 3.41z" fill="#1a1818"/><path data-name="Контур 9" d="M23.932 68.091h.966c2.254 2.137 5.029 4.635 7.3 6.647.025-1.762.025-5 0-6.61l.05-.037h.619l.05.05c-.05 2.236-.05 5.347 0 7.7l-.062.05h-.917c-1.945-1.9-5.14-4.786-7.333-6.723a243.755 243.755 0 000 6.685l-.049.037h-.632l-.037-.037c.037-1.925.037-5.911 0-7.722z" fill="#1a1818"/><path data-name="Контур 10" d="M35.096 75.863c.049-2.4.049-5.849 0-7.66l.049-.05c.953-.037 1.771-.163 3.951-.163 3.159 0 5.945 1.312 5.945 4.086 0 2.474-2.7 3.924-5.945 3.924-1.932 0-3.072-.112-3.951-.1zm1.053-.613a18.7 18.7 0 002.774.174c3.369 0 4.942-1.249 4.942-3.324 0-2.274-1.66-3.523-5-3.523a15.413 15.413 0 00-2.713.225c-.041 1.276-.029 4.337-.004 6.449z" fill="#1a1818"/><path data-name="Контур 11" d="M51.779 76c-2.9 0-5.549-1.312-5.549-3.974 0-2.773 2.786-4.035 5.549-4.035s5.549 1.237 5.549 4.011c.004 2.661-2.65 3.998-5.549 3.998zm-.025-.588c2.787 0 4.4-1.237 4.4-3.386s-1.7-3.448-4.4-3.448-4.348 1.262-4.348 3.424 1.574 3.41 4.349 3.41z" fill="#1a1818"/><path data-name="Контур 12" d="M63.558 75.888h-.979l-.037-.025c.049-2.4.049-5.936 0-7.735l.049-.037h.966l.049.05a157.06 157.06 0 00-.049 4.435c2.539-1.675 4.385-3.1 6.218-4.486h1.387l.024.05c-1.35.812-3 1.924-4.707 3.123 1.424 1.324 3.381 3.086 5.215 4.573l-.038.05h-1.472a68.646 68.646 0 00-4.533-4.035l-2.093 1.474c.012.887.024 1.75.049 2.524z" fill="#1a1818"/><path data-name="Контур 13" d="M73.032 75.85c.049-2.4.049-5.911 0-7.709l.037-.05h.979l.049.037c-.049 2.7-.037 5.2-.012 7.722l-.049.037h-.966z" fill="#1a1818"/><path data-name="Контур 14" d="M76.389 68.091h.966c2.254 2.137 5.029 4.635 7.3 6.647.025-1.762.025-5 0-6.61l.049-.037h.619l.049.05a201.659 201.659 0 000 7.7l-.062.05h-.916c-1.945-1.9-5.14-4.786-7.333-6.723a239.823 239.823 0 000 6.685l-.049.037h-.632l-.037-.037c.037-1.925.037-5.911 0-7.722z" fill="#1a1818"/><path data-name="Контур 15" d="M92.739 76c-3.332 0-5.685-1.4-5.685-3.962 0-2.474 2.589-4.048 5.635-4.048a10.331 10.331 0 014.187.637v1.038l-.05.024c-.557-.474-1.573-1.111-4.1-1.111-2.7 0-4.5 1.162-4.5 3.46 0 2.325 1.548 3.374 4.509 3.374a8.59 8.59 0 003.381-.624c.025-.887.025-1.387-.012-2.711l.05-.05h.966l.05.038a32.771 32.771 0 000 3.136 11.1 11.1 0 01-4.431.799z" fill="#1a1818"/><path data-name="Контур 16" d="M105.037 72.414c-1.2-.2-3.047-.025-4.669-.4-1.1-.25-1.685-.824-1.685-1.774 0-1.349 1.289-2.249 4.125-2.249a7.878 7.878 0 013.852.724v.912l-.062.025a5.78 5.78 0 00-3.852-1.074c-2.589 0-3.22.762-3.22 1.474 0 .637.421 1 1.238 1.162 1.251.251 3.01.112 4.484.326 1.288.187 2.056.712 2.056 1.786 0 1.512-1.375 2.674-4.583 2.674a8 8 0 01-4.223-.913v-1.012l.049-.024a5.914 5.914 0 004.236 1.361c2.676 0 3.6-.774 3.6-1.762.004-.624-.429-1.086-1.346-1.236z" fill="#1a1818"/><path data-name="Контур 17" d="M111.894 41.491v.4h-.777v2.045h-.485v-2.045h-.768v-.4zm2.624 2.449l-.089-1.441c-.009-.189-.009-.414-.018-.685h-.027c-.063.216-.134.5-.205.73l-.437 1.359h-.5l-.428-1.4c-.044-.18-.125-.478-.178-.694h-.027a17 17 0 01-.018.685l-.089 1.441h-.465l.179-2.449h.732l.41 1.2a5.631 5.631 0 01.161.622h.018c.054-.216.116-.432.16-.6l.419-1.216h.705l.179 2.449z" fill="#1a1818"/></g><path data-name="Color Overlay" d="M98.5 75.088v-1.012l.05-.023a5.917 5.917 0 004.236 1.36c2.675 0 3.6-.774 3.6-1.762 0-.625-.434-1.086-1.351-1.237-1.2-.2-3.047-.025-4.668-.4-1.1-.249-1.685-.824-1.685-1.772 0-1.35 1.288-2.25 4.124-2.25a7.861 7.861 0 013.852.725v.911l-.062.025a5.79 5.79 0 00-3.853-1.074c-2.589 0-3.219.762-3.219 1.474 0 .636.421 1 1.238 1.161 1.251.251 3.009.113 4.483.326 1.289.188 2.057.712 2.057 1.787 0 1.512-1.376 2.674-4.584 2.674a8 8 0 01-4.218-.913zm-11.444-3.05c0-2.473 2.588-4.047 5.635-4.047a10.319 10.319 0 014.187.637v1.038l-.05.024c-.557-.474-1.573-1.112-4.1-1.112-2.7 0-4.5 1.163-4.5 3.46 0 2.326 1.547 3.375 4.508 3.375a8.6 8.6 0 003.38-.625c.026-.886.026-1.386-.011-2.711l.049-.051h.966l.051.037a32.149 32.149 0 000 3.137 11.111 11.111 0 01-4.435.8c-3.33 0-5.683-1.4-5.683-3.962zm-40.823-.012c0-2.774 2.785-4.036 5.548-4.036s5.549 1.237 5.549 4.012c0 2.66-2.65 4-5.549 4s-5.55-1.314-5.55-3.976zm1.175-.024c0 2.148 1.573 3.41 4.348 3.41s4.4-1.237 4.4-3.386-1.7-3.448-4.4-3.448-4.35 1.262-4.35 3.422zm-12.262 3.9l-.049-.036c.049-2.4.049-5.848 0-7.661l.049-.048c.954-.038 1.771-.164 3.951-.164 3.159 0 5.945 1.313 5.945 4.086 0 2.474-2.7 3.923-5.945 3.923-1.934-.002-3.072-.114-3.953-.102zm1-7.1c-.038 1.276-.025 4.336 0 6.448a18.578 18.578 0 002.775.174c3.37 0 4.942-1.249 4.942-3.324 0-2.273-1.659-3.522-5-3.522a15.543 15.543 0 00-2.715.222zm-25.043 3.224c0-2.774 2.787-4.036 5.548-4.036s5.55 1.237 5.55 4.012c0 2.66-2.652 4-5.55 4S11.1 74.688 11.1 72.026zm1.177-.024c0 2.148 1.573 3.41 4.348 3.41s4.4-1.237 4.4-3.386-1.7-3.448-4.4-3.448S12.281 69.84 12.281 72zm-12.076.05c0-2.537 2.551-4.062 5.685-4.062a10.357 10.357 0 014 .625v.924l-.05.037a6.388 6.388 0 00-3.915-1c-2.662 0-4.545 1.149-4.545 3.474 0 2.236 1.622 3.36 4.583 3.36a5.828 5.828 0 004.1-1.35l.063.026v.987a8.444 8.444 0 01-4.162.924C2.6 76 .205 74.575.205 72.052zm84.185 3.835c-1.944-1.9-5.14-4.786-7.332-6.722a232.33 232.33 0 000 6.685l-.05.037h-.633l-.037-.037c.037-1.925.037-5.91 0-7.723l.049-.037h.967c2.254 2.136 5.028 4.635 7.3 6.647.025-1.762.025-5 0-6.61l.049-.037h.62l.05.05c-.05 2.236-.05 5.347 0 7.7l-.063.051zm-11.321 0l-.036-.037c.049-2.4.049-5.91 0-7.709l.036-.05h.979l.05.037c-.05 2.7-.038 5.2-.012 7.723l-.05.037zm-2.885 0a69.19 69.19 0 00-4.533-4.036l-2.094 1.474c.012.886.024 1.75.049 2.525l-.049.037h-.979l-.037-.024c.05-2.4.05-5.936 0-7.736l.05-.037h.966l.049.05a157.106 157.106 0 00-.049 4.435c2.539-1.674 4.384-3.1 6.219-4.484h1.386l.025.05c-1.351.812-3 1.924-4.706 3.125 1.423 1.322 3.38 3.084 5.214 4.571l-.038.051zm-38.247 0c-1.944-1.9-5.14-4.786-7.333-6.722a243.755 243.755 0 000 6.685l-.049.037h-.633l-.037-.037c.037-1.925.037-5.91 0-7.723l.05-.037h.966c2.255 2.136 5.028 4.635 7.3 6.647.025-1.762.025-5 0-6.61l.05-.037h.618l.05.05c-.05 2.236-.05 5.347 0 7.7l-.063.051zm71.376-13.5V41.6h4.216v20.785zm-9.406 0v-12.7l-9.069 8.765H84.2l-9.547-8.8v12.737h-4.216v-21.1h.96L84.54 53.42l12.615-12.131h.967v21.1zm-29.878 0l-2.609-3.839H46.206l-2.547 3.839H39.15L53.394 41h.768l14.544 21.388zm-15.406-7.488h10.3l-5.2-7.646zm-15.747 7.488V41.6h4.216v20.785zm-9.407 0v-12.7l-9.069 8.765h-.636l-9.548-8.8v12.737H0v-21.1h.96L14.103 53.42l12.615-12.131h.966v21.1zm91.051-18.446l-.09-1.441c-.009-.189-.009-.415-.017-.685h-.027c-.063.215-.134.5-.2.729l-.438 1.359h-.5l-.429-1.4c-.044-.18-.123-.478-.178-.693h-.027c0 .225-.008.468-.018.685l-.088 1.441h-.466l.179-2.45h.732l.41 1.2a5.75 5.75 0 01.161.621h.018c.053-.215.116-.431.16-.6l.419-1.215h.706l.178 2.45zm-3.884 0V41.9h-.767v-.405h2.026v.405h-.777v2.045zm-35.373-8.689a1.573 1.573 0 011.605-1.564h.008a1.57 1.57 0 11-.008 3.139 1.581 1.581 0 01-1.605-1.575zm.4 0a1.215 1.215 0 001.214 1.25 1.2 1.2 0 001.188-1.239 1.214 1.214 0 00-1.2-1.258h-.011a1.216 1.216 0 00-1.192 1.247zm1.576.812a1.253 1.253 0 01-.123-.381c-.028-.164-.123-.238-.323-.238h-.171v.62h-.36V34.5a4.2 4.2 0 01.6-.047.83.83 0 01.532.123.4.4 0 01.161.334.405.405 0 01-.322.372v.019c.153.047.227.172.276.382a1.377 1.377 0 00.114.381zm-.608-1.326v.449h.171c.2 0 .361-.067.361-.229 0-.144-.1-.239-.332-.239a.849.849 0 00-.201.019zm-9.231.065l4.98-14.771-18.113 10.615h-.678l-5.63-3.3 1.975-4.221 4 2.354L80.645 9.109l.989-.033L73.15 35.59zM26.227 9.076l.987.033L43.85 19.393 53.75 0h.6l9.033 18.208-4.852 2.854-4.545-9.534-5.383 10.8-2.028 4.2-11.1-6.5 4.979 14.771-5.744.787z" fill="#fff"/></g></svg>