<svg xmlns="http://www.w3.org/2000/svg" width="115.001" height="76"><g data-name="Сгруппировать 9"><g data-name="dark_back"><g data-name="Сгруппировать 5" fill="#77aabe"><path data-name="Контур 35" d="M76.876 33.688a1.569 1.569 0 11-.009 3.138 1.57 1.57 0 110-3.138zm-.019.316a1.25 1.25 0 00.019 2.5 1.2 1.2 0 001.188-1.24 1.214 1.214 0 00-1.2-1.258zm-.237 2.06h-.361V34.5a4.155 4.155 0 01.6-.048.831.831 0 01.532.124.4.4 0 01.161.334.4.4 0 01-.323.372v.019c.152.048.228.172.276.382a1.369 1.369 0 00.114.382h-.38a1.243 1.243 0 01-.123-.382c-.028-.163-.124-.238-.323-.238h-.171zm.009-.877h.171c.2 0 .361-.067.361-.23 0-.142-.1-.238-.332-.238a.891.891 0 00-.2.019z"/><path data-name="Контур 36" d="M54.344.001h-.6l-9.9 19.394-16.63-10.287-.988-.033 8.484 26.514 5.745-.786-4.98-14.77 11.1 6.5 2.027-4.2 5.383-10.8 4.545 9.533 4.852-2.853z"/><path data-name="Контур 37" d="M80.64 9.108L53.927 25.479l-3.995-2.354-1.976 4.222 5.632 3.3h.677l18.114-10.614L67.4 34.805l5.745.786 8.487-26.516z"/></g><g data-name="Сгруппировать 6" fill="#1a1818"><path data-name="Контур 38" d="M14.103 53.417L.96 41.286H0v21.1h4.215V49.651l9.548 8.8h.636l9.069-8.764v12.7h4.215v-21.1h-.966z"/><path data-name="Прямоугольник 5" d="M32.875 41.603h4.216v20.785h-4.216z"/><path data-name="Контур 39" d="M53.394 41L39.149 62.388h4.509l2.548-3.84H61.42l2.61 3.84h4.675L54.162 41zm5.531 13.9h-10.3l5.1-7.646z"/><path data-name="Контур 40" d="M84.541 53.417L71.398 41.286h-.96v21.1h4.215V49.651l9.547 8.8h.637l9.069-8.764v12.7h4.216v-21.1h-.966z"/><path data-name="Прямоугольник 6" d="M103.313 41.603h4.216v20.785h-4.216z"/></g><path data-name="Контур 41" d="M5.964 76C2.595 76 .205 74.575.205 72.051S2.757 67.99 5.89 67.99a10.36 10.36 0 014 .625v.924l-.049.038a6.389 6.389 0 00-3.914-1c-2.663 0-4.546 1.149-4.546 3.473 0 2.236 1.623 3.361 4.583 3.361a5.824 5.824 0 004.1-1.349l.062.025v.987A8.447 8.447 0 015.964 76z" fill="#1a1818"/><path data-name="Контур 42" d="M16.654 76c-2.9 0-5.549-1.312-5.549-3.974 0-2.773 2.786-4.035 5.549-4.035s5.549 1.237 5.549 4.011c0 2.661-2.651 3.998-5.549 3.998zm-.025-.588c2.787 0 4.4-1.237 4.4-3.386s-1.7-3.448-4.4-3.448-4.348 1.262-4.348 3.424 1.574 3.41 4.351 3.41z" fill="#1a1818"/><path data-name="Контур 43" d="M23.932 68.091h.966c2.254 2.137 5.029 4.635 7.3 6.647.025-1.762.025-5 0-6.61l.05-.037h.619l.05.05c-.05 2.236-.05 5.347 0 7.7l-.062.05h-.917c-1.945-1.9-5.14-4.786-7.333-6.723a243.755 243.755 0 000 6.685l-.049.037h-.632l-.037-.037c.037-1.925.037-5.911 0-7.722z" fill="#1a1818"/><path data-name="Контур 44" d="M35.096 75.863c.049-2.4.049-5.849 0-7.66l.049-.05c.953-.037 1.771-.163 3.951-.163 3.159 0 5.945 1.312 5.945 4.086 0 2.474-2.7 3.924-5.945 3.924-1.932 0-3.072-.112-3.951-.1zm1.053-.613a18.7 18.7 0 002.774.174c3.369 0 4.942-1.249 4.942-3.324 0-2.274-1.66-3.523-5-3.523a15.413 15.413 0 00-2.713.225c-.041 1.276-.029 4.337-.004 6.449z" fill="#1a1818"/><path data-name="Контур 45" d="M51.779 76c-2.9 0-5.549-1.312-5.549-3.974 0-2.773 2.786-4.035 5.549-4.035s5.549 1.237 5.549 4.011c.004 2.661-2.65 3.998-5.549 3.998zm-.025-.588c2.787 0 4.4-1.237 4.4-3.386s-1.7-3.448-4.4-3.448-4.348 1.262-4.348 3.424 1.574 3.41 4.349 3.41z" fill="#1a1818"/><path data-name="Контур 46" d="M63.558 75.888h-.979l-.037-.025c.049-2.4.049-5.936 0-7.735l.049-.037h.966l.049.05a157.06 157.06 0 00-.049 4.435c2.539-1.675 4.385-3.1 6.218-4.486h1.387l.024.05c-1.35.812-3 1.924-4.707 3.123 1.424 1.324 3.381 3.086 5.215 4.573l-.038.05h-1.472a68.646 68.646 0 00-4.533-4.035l-2.093 1.474c.012.887.024 1.75.049 2.524z" fill="#1a1818"/><path data-name="Контур 47" d="M73.032 75.85c.049-2.4.049-5.911 0-7.709l.037-.05h.979l.049.037c-.049 2.7-.037 5.2-.012 7.722l-.049.037h-.966z" fill="#1a1818"/><path data-name="Контур 48" d="M76.389 68.091h.966c2.254 2.137 5.029 4.635 7.3 6.647.025-1.762.025-5 0-6.61l.049-.037h.619l.049.05a201.659 201.659 0 000 7.7l-.062.05h-.916c-1.945-1.9-5.14-4.786-7.333-6.723a239.823 239.823 0 000 6.685l-.049.037h-.632l-.037-.037c.037-1.925.037-5.911 0-7.722z" fill="#1a1818"/><path data-name="Контур 49" d="M92.739 76c-3.332 0-5.685-1.4-5.685-3.962 0-2.474 2.589-4.048 5.635-4.048a10.331 10.331 0 014.187.637v1.038l-.05.024c-.557-.474-1.573-1.111-4.1-1.111-2.7 0-4.5 1.162-4.5 3.46 0 2.325 1.548 3.374 4.509 3.374a8.59 8.59 0 003.381-.624c.025-.887.025-1.387-.012-2.711l.05-.05h.966l.05.038a32.771 32.771 0 000 3.136 11.1 11.1 0 01-4.431.799z" fill="#1a1818"/><path data-name="Контур 50" d="M105.037 72.414c-1.2-.2-3.047-.025-4.669-.4-1.1-.25-1.685-.824-1.685-1.774 0-1.349 1.289-2.249 4.125-2.249a7.878 7.878 0 013.852.724v.912l-.062.025a5.78 5.78 0 00-3.852-1.074c-2.589 0-3.22.762-3.22 1.474 0 .637.421 1 1.238 1.162 1.251.251 3.01.112 4.484.326 1.288.187 2.056.712 2.056 1.786 0 1.512-1.375 2.674-4.583 2.674a8 8 0 01-4.223-.913v-1.012l.049-.024a5.914 5.914 0 004.236 1.361c2.676 0 3.6-.774 3.6-1.762.004-.624-.429-1.086-1.346-1.236z" fill="#1a1818"/><path data-name="Контур 51" d="M111.894 41.491v.4h-.777v2.045h-.485v-2.045h-.768v-.4zm2.624 2.449l-.089-1.441c-.009-.189-.009-.414-.018-.685h-.027c-.063.216-.134.5-.205.73l-.437 1.359h-.5l-.428-1.4c-.044-.18-.125-.478-.178-.694h-.027a17 17 0 01-.018.685l-.089 1.441h-.465l.179-2.449h.732l.41 1.2a5.631 5.631 0 01.161.622h.018c.054-.216.116-.432.16-.6l.419-1.216h.705l.179 2.449z" fill="#1a1818"/></g><path data-name="Color Overlay" d="M98.5 75.087v-1.012l.049-.024a5.915 5.915 0 004.235 1.361c2.676 0 3.6-.774 3.6-1.761 0-.625-.433-1.087-1.35-1.237-1.2-.2-3.047-.024-4.669-.4-1.1-.249-1.685-.824-1.685-1.774 0-1.349 1.289-2.249 4.125-2.249a7.874 7.874 0 013.852.725v.912l-.062.025a5.784 5.784 0 00-3.852-1.074c-2.589 0-3.22.761-3.22 1.473 0 .637.421 1 1.238 1.162 1.251.251 3.01.113 4.484.326 1.289.187 2.057.712 2.057 1.787 0 1.512-1.375 2.674-4.584 2.674a8 8 0 01-4.218-.914zm-11.444-3.049c0-2.473 2.588-4.047 5.635-4.047a10.33 10.33 0 014.188.637v1.038l-.05.024c-.557-.474-1.573-1.112-4.1-1.112-2.7 0-4.5 1.162-4.5 3.46 0 2.326 1.548 3.374 4.509 3.374a8.58 8.58 0 003.38-.625c.026-.887.026-1.386-.012-2.711l.049-.05h.966l.05.037a32.77 32.77 0 000 3.136 11.1 11.1 0 01-4.434.8c-3.331.001-5.684-1.399-5.684-3.961zm-40.823-.012c0-2.774 2.786-4.036 5.549-4.036s5.549 1.237 5.549 4.011c0 2.66-2.651 4-5.549 4s-5.552-1.314-5.552-3.975zm1.176-.024c0 2.148 1.573 3.41 4.348 3.41s4.4-1.237 4.4-3.386-1.7-3.448-4.4-3.448S47.406 69.84 47.406 72zm-12.262 3.9l-.049-.037c.049-2.4.049-5.848 0-7.66l.049-.049c.953-.038 1.771-.163 3.951-.163 3.159 0 5.945 1.312 5.945 4.086 0 2.474-2.7 3.923-5.945 3.923-1.935-.002-3.074-.115-3.953-.102zm1-7.1c-.038 1.275-.025 4.336 0 6.448a18.672 18.672 0 002.774.175c3.37 0 4.943-1.249 4.943-3.324 0-2.273-1.66-3.523-5-3.523a15.417 15.417 0 00-2.716.222zM11.1 72.026c0-2.774 2.786-4.036 5.549-4.036S22.2 69.227 22.2 72c0 2.66-2.651 4-5.549 4S11.1 74.687 11.1 72.026zm1.176-.024c0 2.148 1.573 3.41 4.348 3.41s4.4-1.237 4.4-3.386-1.7-3.448-4.4-3.448S12.281 69.84 12.281 72zM.2 72.051c0-2.536 2.552-4.061 5.685-4.061a10.373 10.373 0 014 .625v.924l-.049.038a6.388 6.388 0 00-3.914-1c-2.663 0-4.546 1.149-4.546 3.473 0 2.237 1.623 3.361 4.583 3.361a5.826 5.826 0 004.1-1.349l.063.025v.987a8.451 8.451 0 01-4.163.924C2.6 76 .2 74.575.2 72.051zm84.185 3.836c-1.944-1.9-5.14-4.786-7.332-6.722a239.823 239.823 0 000 6.685l-.049.037h-.633l-.036-.037c.036-1.925.036-5.91 0-7.723l.049-.037h.967c2.254 2.137 5.028 4.636 7.3 6.647.025-1.762.025-5 0-6.61l.049-.037h.619l.049.05a201.659 201.659 0 000 7.7l-.062.05zm-11.321 0l-.036-.037c.049-2.4.049-5.91 0-7.709l.036-.05h.979l.049.037c-.049 2.7-.038 5.2-.013 7.723l-.049.037zm-2.885 0a68.928 68.928 0 00-4.532-4.036l-2.093 1.474c.012.886.023 1.75.049 2.524l-.049.037h-.979l-.037-.024c.049-2.4.049-5.936 0-7.735l.049-.037h.967l.049.05a157.06 157.06 0 00-.049 4.435c2.539-1.675 4.384-3.1 6.218-4.486h1.387l.024.05c-1.35.812-3 1.924-4.706 3.124 1.424 1.323 3.381 3.085 5.215 4.572l-.038.05zm-38.246 0c-1.945-1.9-5.14-4.786-7.333-6.722a247.817 247.817 0 000 6.685l-.049.037h-.633l-.037-.037c.037-1.925.037-5.91 0-7.723l.05-.037h.966c2.255 2.137 5.028 4.636 7.3 6.647.025-1.762.025-5 0-6.61l.049-.037h.619l.049.05a201.659 201.659 0 000 7.7l-.062.05zm71.375-13.5V41.6h4.216v20.785zm-9.407 0v-12.7l-9.068 8.765H84.2l-9.547-8.8v12.737h-4.216v-21.1h.96L84.54 53.42l12.615-12.131h.966v21.1zm-29.876 0l-2.61-3.84H46.206l-2.548 3.84h-4.509L53.394 41h.768L68.7 62.388zM48.623 54.9h10.3l-5.2-7.646zm-15.748 7.489V41.6h4.216v20.785zm-9.407 0v-12.7L14.4 58.454h-.636l-9.549-8.8v12.737H0v-21.1h.96L14.1 53.417l12.615-12.131h.966v21.1zm91.05-18.447l-.09-1.441c-.009-.189-.009-.414-.017-.685h-.027c-.063.216-.134.5-.205.73l-.437 1.359h-.5l-.428-1.395c-.044-.18-.124-.478-.178-.694h-.027a17 17 0 01-.018.685l-.088 1.441h-.465l.179-2.45h.732l.41 1.2a5.526 5.526 0 01.161.621h.018c.053-.216.116-.432.16-.6l.419-1.216h.706l.178 2.45zm-3.883 0V41.9h-.767v-.405h2.026v.405h-.777v2.045zm-35.373-8.689a1.572 1.572 0 011.6-1.564h.009a1.569 1.569 0 11-.009 3.138 1.58 1.58 0 01-1.6-1.575zm.4 0a1.216 1.216 0 001.215 1.25 1.2 1.2 0 001.188-1.24 1.214 1.214 0 00-1.2-1.258h-.01a1.217 1.217 0 00-1.194 1.247zm1.576.811a1.269 1.269 0 01-.123-.382c-.028-.163-.123-.238-.323-.238h-.17v.619h-.361V34.5a4.222 4.222 0 01.6-.048.825.825 0 01.532.124.4.4 0 01.161.334.4.4 0 01-.322.372v.018c.152.048.228.172.275.382a1.362 1.362 0 00.114.382zm-.608-1.326v.449h.171c.2 0 .361-.067.361-.229 0-.143-.1-.239-.332-.239a.9.9 0 00-.201.018zm-9.23.066l4.979-14.772-18.114 10.615h-.678l-5.631-3.3 1.976-4.222 4 2.354L80.644 9.108l.989-.033-8.49 26.515zM26.226 9.075l.987.033 16.636 10.285L53.747 0h.6l9.034 18.208-4.852 2.854-4.545-9.534L48.6 22.33l-2.029 4.2-11.1-6.5 4.983 14.77-5.745.787z" fill="#fff"/></g></svg>