<svg xmlns="http://www.w3.org/2000/svg" width="115" height="76" viewBox="0 0 115 76">
  <g id="Vector_Smart_Object_copy_5" data-name="Vector Smart Object copy 5" transform="translate(-573 -4645)" opacity="0.902">
    <g id="Vector_Smart_Object_copy_5-2" data-name="Vector Smart Object copy 5" transform="translate(551.932 4577.333)">
      <g id="Сгруппировать_1" data-name="Сгруппировать 1">
        <path id="Контур_1" data-name="Контур 1" d="M97.944,101.355a1.569,1.569,0,1,1-.009,3.138,1.57,1.57,0,1,1,0-3.138Zm-.019.316a1.25,1.25,0,0,0,.019,2.5,1.2,1.2,0,0,0,1.188-1.24,1.214,1.214,0,0,0-1.2-1.258Zm-.237,2.06h-.361v-1.564a4.155,4.155,0,0,1,.6-.048.831.831,0,0,1,.532.124.4.4,0,0,1,.161.334.4.4,0,0,1-.323.372v.019c.152.048.228.172.276.382a1.369,1.369,0,0,0,.114.382h-.38a1.243,1.243,0,0,1-.123-.382c-.028-.163-.124-.238-.323-.238h-.171Zm.009-.877h.171c.2,0,.361-.067.361-.23,0-.142-.1-.238-.332-.238a.891.891,0,0,0-.2.019Z" fill="#77aabe"/>
        <path id="Контур_2" data-name="Контур 2" d="M75.412,67.668h-.6l-9.9,19.394L48.282,76.775l-.988-.033,8.484,26.514,5.745-.786L56.543,87.7l11.1,6.5L69.67,90l0,0,5.383-10.8,4.545,9.533,4.852-2.853Z" fill="#77aabe"/>
        <path id="Контур_3" data-name="Контур 3" d="M101.708,76.775,74.995,93.146,71,90.792l-1.976,4.222,5.632,3.3h.677L93.447,87.7l-4.979,14.772,5.745.786L102.7,76.742Z" fill="#77aabe"/>
      </g>
      <g id="Сгруппировать_2" data-name="Сгруппировать 2">
        <path id="Контур_4" data-name="Контур 4" d="M35.171,121.084,22.028,108.953h-.96v21.1h4.215V117.318l9.548,8.8h.636l9.069-8.764v12.7h4.215v-21.1h-.966Z" fill="#1a1818"/>
        <rect id="Прямоугольник_1" data-name="Прямоугольник 1" width="4.216" height="20.785" transform="translate(53.943 109.27)" fill="#1a1818"/>
        <path id="Контур_5" data-name="Контур 5" d="M74.462,108.667,60.217,130.055h4.509l2.548-3.84H82.488l2.61,3.84h4.675L75.23,108.667Zm5.531,13.9h-10.3l5.1-7.646Z" fill="#1a1818"/>
        <path id="Контур_6" data-name="Контур 6" d="M105.609,121.084,92.466,108.953h-.96v21.1h4.215V117.318l9.547,8.8h.637l9.069-8.764v12.7h4.216v-21.1h-.966Z" fill="#1a1818"/>
        <rect id="Прямоугольник_2" data-name="Прямоугольник 2" width="4.216" height="20.785" transform="translate(124.381 109.27)" fill="#1a1818"/>
      </g>
      <path id="Контур_7" data-name="Контур 7" d="M27.032,143.667c-3.369,0-5.759-1.425-5.759-3.949s2.552-4.061,5.685-4.061a10.36,10.36,0,0,1,4,.625v.924l-.049.038a6.389,6.389,0,0,0-3.914-1c-2.663,0-4.546,1.149-4.546,3.473,0,2.236,1.623,3.361,4.583,3.361a5.824,5.824,0,0,0,4.1-1.349l.062.025v.987A8.447,8.447,0,0,1,27.032,143.667Z" fill="#1a1818"/>
      <path id="Контур_8" data-name="Контур 8" d="M37.722,143.667c-2.9,0-5.549-1.312-5.549-3.974,0-2.773,2.786-4.035,5.549-4.035s5.549,1.237,5.549,4.011C43.271,142.33,40.62,143.667,37.722,143.667Zm-.025-.588c2.787,0,4.4-1.237,4.4-3.386s-1.7-3.448-4.4-3.448-4.348,1.262-4.348,3.424S34.923,143.079,37.7,143.079Z" fill="#1a1818"/>
      <path id="Контур_9" data-name="Контур 9" d="M45,135.758h.966c2.254,2.137,5.029,4.635,7.3,6.647.025-1.762.025-5,0-6.61l.05-.037h.619l.05.05c-.05,2.236-.05,5.347,0,7.7l-.062.05h-.917c-1.945-1.9-5.14-4.786-7.333-6.723-.024,1.562-.037,4.736,0,6.685l-.049.037h-.632l-.037-.037c.037-1.925.037-5.911,0-7.722Z" fill="#1a1818"/>
      <path id="Контур_10" data-name="Контур 10" d="M56.164,143.53c.049-2.4.049-5.849,0-7.66l.049-.05c.953-.037,1.771-.163,3.951-.163,3.159,0,5.945,1.312,5.945,4.086,0,2.474-2.7,3.924-5.945,3.924-1.932,0-3.072-.112-3.951-.1Zm1.053-.613a18.7,18.7,0,0,0,2.774.174c3.369,0,4.942-1.249,4.942-3.324,0-2.274-1.66-3.523-5-3.523a15.413,15.413,0,0,0-2.713.225C57.179,137.745,57.191,140.806,57.216,142.918Z" fill="#1a1818"/>
      <path id="Контур_11" data-name="Контур 11" d="M72.847,143.667c-2.9,0-5.549-1.312-5.549-3.974,0-2.773,2.786-4.035,5.549-4.035s5.549,1.237,5.549,4.011C78.4,142.33,75.746,143.667,72.847,143.667Zm-.025-.588c2.787,0,4.4-1.237,4.4-3.386s-1.7-3.448-4.4-3.448-4.348,1.262-4.348,3.424S70.048,143.079,72.823,143.079Z" fill="#1a1818"/>
      <path id="Контур_12" data-name="Контур 12" d="M84.626,143.555h-.979l-.037-.025c.049-2.4.049-5.936,0-7.735l.049-.037h.966l.049.05c-.037,1.212-.049,2.811-.049,4.435,2.539-1.675,4.385-3.1,6.218-4.486h1.387l.024.05c-1.35.812-3,1.924-4.707,3.123,1.424,1.324,3.381,3.086,5.215,4.573l-.038.05H91.252c-1.684-1.624-2.96-2.749-4.533-4.035l-2.093,1.474c.012.887.024,1.75.049,2.524Z" fill="#1a1818"/>
      <path id="Контур_13" data-name="Контур 13" d="M94.1,143.517c.049-2.4.049-5.911,0-7.709l.037-.05h.979l.049.037c-.049,2.7-.037,5.2-.012,7.722l-.049.037h-.966Z" fill="#1a1818"/>
      <path id="Контур_14" data-name="Контур 14" d="M97.457,135.758h.966c2.254,2.137,5.029,4.635,7.3,6.647.025-1.762.025-5,0-6.61l.049-.037h.619l.049.05c-.049,2.236-.049,5.347,0,7.7l-.062.05h-.916c-1.945-1.9-5.14-4.786-7.333-6.723-.025,1.562-.037,4.736,0,6.685l-.049.037h-.632l-.037-.037c.037-1.925.037-5.911,0-7.722Z" fill="#1a1818"/>
      <path id="Контур_15" data-name="Контур 15" d="M113.807,143.667c-3.332,0-5.685-1.4-5.685-3.962,0-2.474,2.589-4.048,5.635-4.048a10.331,10.331,0,0,1,4.187.637v1.038l-.05.024c-.557-.474-1.573-1.111-4.1-1.111-2.7,0-4.5,1.162-4.5,3.46,0,2.325,1.548,3.374,4.509,3.374a8.59,8.59,0,0,0,3.381-.624c.025-.887.025-1.387-.012-2.711l.05-.05h.966l.05.038c-.05,1.274-.05,1.987,0,3.136A11.1,11.1,0,0,1,113.807,143.667Z" fill="#1a1818"/>
      <path id="Контур_16" data-name="Контур 16" d="M126.105,140.081c-1.2-.2-3.047-.025-4.669-.4-1.1-.25-1.685-.824-1.685-1.774,0-1.349,1.289-2.249,4.125-2.249a7.878,7.878,0,0,1,3.852.724v.912l-.062.025a5.78,5.78,0,0,0-3.852-1.074c-2.589,0-3.22.762-3.22,1.474,0,.637.421,1,1.238,1.162,1.251.251,3.01.112,4.484.326,1.288.187,2.056.712,2.056,1.786,0,1.512-1.375,2.674-4.583,2.674a8,8,0,0,1-4.223-.913v-1.012l.049-.024a5.914,5.914,0,0,0,4.236,1.361c2.676,0,3.6-.774,3.6-1.762C127.455,140.693,127.022,140.231,126.105,140.081Z" fill="#1a1818"/>
      <path id="Контур_17" data-name="Контур 17" d="M132.962,109.158v.4h-.777v2.045H131.7v-2.045h-.768v-.4Zm2.624,2.449-.089-1.441c-.009-.189-.009-.414-.018-.685h-.027c-.063.216-.134.5-.205.73l-.437,1.359h-.5l-.428-1.4c-.044-.18-.125-.478-.178-.694h-.027c0,.225-.009.468-.018.685l-.089,1.441h-.465l.179-2.449h.732l.41,1.2a5.631,5.631,0,0,1,.161.622h.018c.054-.216.116-.432.16-.6l.419-1.216h.705l.179,2.449Z" fill="#1a1818"/>
    </g>
    <path id="Color_Overlay" data-name="Color Overlay" d="M671.5,4720.088v-1.012l.05-.023a5.917,5.917,0,0,0,4.236,1.36c2.675,0,3.6-.774,3.6-1.762,0-.625-.434-1.086-1.351-1.237-1.2-.2-3.047-.025-4.668-.4-1.1-.249-1.685-.824-1.685-1.772,0-1.35,1.288-2.25,4.124-2.25a7.861,7.861,0,0,1,3.852.725v.911l-.062.025a5.79,5.79,0,0,0-3.853-1.074c-2.589,0-3.219.762-3.219,1.474,0,.636.421,1,1.238,1.161,1.251.251,3.009.113,4.483.326,1.289.188,2.057.712,2.057,1.787,0,1.512-1.376,2.674-4.584,2.674A8,8,0,0,1,671.5,4720.088Zm-11.444-3.05c0-2.473,2.588-4.047,5.635-4.047a10.319,10.319,0,0,1,4.187.637v1.038l-.05.024c-.557-.474-1.573-1.112-4.1-1.112-2.7,0-4.5,1.163-4.5,3.46,0,2.326,1.547,3.375,4.508,3.375a8.6,8.6,0,0,0,3.38-.625c.026-.886.026-1.386-.011-2.711l.049-.051h.966l.051.037c-.051,1.275-.051,1.989,0,3.137a11.111,11.111,0,0,1-4.435.8C662.406,4721,660.053,4719.6,660.053,4717.038Zm-40.823-.012c0-2.774,2.785-4.036,5.548-4.036s5.549,1.237,5.549,4.012c0,2.66-2.65,4-5.549,4S619.231,4719.688,619.231,4717.026Zm1.175-.024c0,2.148,1.573,3.41,4.348,3.41s4.4-1.237,4.4-3.386-1.7-3.448-4.4-3.448S620.406,4714.84,620.406,4717Zm-12.262,3.9-.049-.036c.049-2.4.049-5.848,0-7.661l.049-.048c.954-.038,1.771-.164,3.951-.164,3.159,0,5.945,1.313,5.945,4.086,0,2.474-2.7,3.923-5.945,3.923C610.163,4721,609.025,4720.888,608.144,4720.9Zm1-7.1c-.038,1.276-.025,4.336,0,6.448a18.578,18.578,0,0,0,2.775.174c3.37,0,4.942-1.249,4.942-3.324,0-2.273-1.659-3.522-5-3.522A15.543,15.543,0,0,0,609.148,4713.8Zm-25.043,3.224c0-2.774,2.787-4.036,5.548-4.036s5.55,1.237,5.55,4.012c0,2.66-2.652,4-5.55,4S584.1,4719.688,584.1,4717.026Zm1.177-.024c0,2.148,1.573,3.41,4.348,3.41s4.4-1.237,4.4-3.386-1.7-3.448-4.4-3.448S585.281,4714.84,585.281,4717Zm-12.076.05c0-2.537,2.551-4.062,5.685-4.062a10.357,10.357,0,0,1,4,.625v.924l-.05.037a6.388,6.388,0,0,0-3.915-1c-2.662,0-4.545,1.149-4.545,3.474,0,2.236,1.622,3.36,4.583,3.36a5.828,5.828,0,0,0,4.1-1.35l.063.026v.987a8.444,8.444,0,0,1-4.162.924C575.6,4721,573.205,4719.575,573.205,4717.052Zm84.185,3.835c-1.944-1.9-5.14-4.786-7.332-6.722-.026,1.562-.038,4.736,0,6.685l-.05.037h-.633l-.037-.037c.037-1.925.037-5.91,0-7.723l.049-.037h.967c2.254,2.136,5.028,4.635,7.3,6.647.025-1.762.025-5,0-6.61l.049-.037h.62l.05.05c-.05,2.236-.05,5.347,0,7.7l-.063.051Zm-11.321,0-.036-.037c.049-2.4.049-5.91,0-7.709l.036-.05h.979l.05.037c-.05,2.7-.038,5.2-.012,7.723l-.05.037Zm-2.885,0c-1.685-1.625-2.961-2.749-4.533-4.036l-2.094,1.474c.012.886.024,1.75.049,2.525l-.049.037h-.979l-.037-.024c.05-2.4.05-5.936,0-7.736l.05-.037h.966l.049.05c-.037,1.212-.049,2.812-.049,4.435,2.539-1.674,4.384-3.1,6.219-4.484h1.386l.025.05c-1.351.812-3,1.924-4.706,3.125,1.423,1.322,3.38,3.084,5.214,4.571l-.038.051Zm-38.247,0c-1.944-1.9-5.14-4.786-7.333-6.722-.024,1.562-.037,4.736,0,6.685l-.049.037h-.633l-.037-.037c.037-1.925.037-5.91,0-7.723l.05-.037h.966c2.255,2.136,5.028,4.635,7.3,6.647.025-1.762.025-5,0-6.61l.05-.037h.618l.05.05c-.05,2.236-.05,5.347,0,7.7l-.063.051Zm71.376-13.5V4686.6h4.216v20.785Zm-9.406,0v-12.7l-9.069,8.765H657.2l-9.547-8.8v12.737h-4.216v-21.1h.96l13.143,12.131,12.615-12.131h.967v21.1Zm-29.878,0-2.609-3.839H619.206l-2.547,3.839h-4.509L626.394,4686h.768l14.544,21.388Zm-15.406-7.488h10.3l-5.2-7.646Zm-15.747,7.488V4686.6h4.216v20.785Zm-9.407,0v-12.7l-9.069,8.765h-.636l-9.548-8.8v12.737H573v-21.1h.96l13.143,12.131,12.615-12.131h.966v21.1Zm91.051-18.446-.09-1.441c-.009-.189-.009-.415-.017-.685h-.027c-.063.215-.134.5-.2.729l-.438,1.359h-.5l-.429-1.4c-.044-.18-.123-.478-.178-.693h-.027c0,.225-.008.468-.018.685l-.088,1.441h-.466l.179-2.45h.732l.41,1.2a5.75,5.75,0,0,1,.161.621h.018c.053-.215.116-.431.16-.6l.419-1.215h.706l.178,2.45Zm-3.884,0V4686.9h-.767v-.405h2.026v.405h-.777v2.045Zm-35.373-8.689a1.573,1.573,0,0,1,1.605-1.564h.008a1.569,1.569,0,1,1-.008,3.139A1.581,1.581,0,0,1,648.262,4680.252Zm.4,0a1.215,1.215,0,0,0,1.214,1.25,1.2,1.2,0,0,0,1.188-1.239,1.214,1.214,0,0,0-1.2-1.258h-.011A1.216,1.216,0,0,0,648.661,4680.252Zm1.576.812a1.253,1.253,0,0,1-.123-.381c-.028-.164-.123-.238-.323-.238h-.171v.62h-.36V4679.5a4.2,4.2,0,0,1,.6-.047.83.83,0,0,1,.532.123.4.4,0,0,1,.161.334.405.405,0,0,1-.322.372v.019c.153.047.227.172.276.382a1.377,1.377,0,0,0,.114.381Zm-.608-1.326v.449h.171c.2,0,.361-.067.361-.229,0-.144-.1-.239-.332-.239A.849.849,0,0,0,649.629,4679.738Zm-9.231.065,4.98-14.771-18.113,10.615h-.678l-5.63-3.3,1.975-4.221,4,2.354,26.712-16.371.989-.033-8.484,26.514Zm-41.172-25.727.987.033,16.636,10.284,9.9-19.393h.6l9.033,18.208-4.852,2.854-4.545-9.534-5.383,10.8,0,0-2.028,4.2-11.1-6.5,4.979,14.771-5.744.787Z" fill="#fff"/>
  </g>
</svg>
